<svg width="97" height="96" viewBox="0 0 97 96" fill="none" xmlns="http://www.w3.org/2000/svg">
<g clip-path="url(#clip0_1746_261)">
<path d="M88.5981 73.3399C83.3653 73.2095 79.3096 73.7328 75.9081 75.1717C74.9268 75.5638 73.3568 75.5642 73.2259 76.8072C73.7493 77.3305 73.8147 78.181 74.2727 78.9002C75.0584 80.2083 76.4311 81.9746 77.6741 82.8909C79.0476 83.9372 80.4218 84.9835 81.8602 85.8994C84.4116 87.4695 87.2901 88.385 89.7757 89.9551C91.2153 90.8702 92.6534 92.0485 94.0926 93.0294C94.8122 93.552 95.2698 94.4033 96.1861 94.73V94.5341C95.7278 93.9449 95.5969 93.0949 95.1394 92.4407C94.4859 91.7865 93.831 91.1977 93.1768 90.5435C91.28 87.9929 88.9252 85.7686 86.3742 83.9372C84.2812 82.498 79.7018 80.5357 78.8517 78.1152C78.8517 78.1152 78.7859 78.0502 78.7208 77.9847C80.1597 77.8539 81.8602 77.3305 83.2344 76.938C85.4583 76.3489 87.486 76.4801 89.7757 75.8913C90.822 75.6296 91.8687 75.3025 92.9151 74.9754V74.387C91.7383 73.2095 90.8878 71.6398 89.6448 70.5276C86.3088 67.6488 82.6453 64.8365 78.8517 62.4817C76.8237 61.1733 74.2069 60.3229 72.0484 59.2111C71.2641 58.8182 69.9553 58.6223 69.4977 57.9681C68.3198 56.5293 67.6656 54.6325 66.8155 52.9315C64.9191 49.3335 63.087 45.3436 61.4515 41.55C60.2747 38.9986 59.555 36.4472 58.1158 34.0929C51.3783 22.9726 44.052 16.2351 32.8013 9.62807C30.3808 8.25463 27.5027 7.66585 24.4283 6.9466C22.7936 6.88081 21.1577 6.75035 19.5226 6.68455C18.4759 6.22661 17.4291 4.98401 16.5133 4.39523C12.7855 2.04011 3.1691 -3.06151 0.42184 3.67599C-1.3445 7.92753 3.03864 12.1137 4.54254 14.2729C5.65543 15.7772 7.09392 17.4777 7.87896 19.1786C8.3369 20.29 8.46736 21.4683 8.9253 22.6455C9.9724 25.5229 10.9529 28.7288 12.3271 31.411C13.0468 32.7845 13.8314 34.2233 14.7473 35.4663C15.2707 36.1855 16.1862 36.513 16.3828 37.6902C15.4673 38.9986 15.4015 40.9612 14.8778 42.5963C12.523 49.988 13.4393 59.1457 16.7749 64.5748C17.8213 66.2095 20.3072 69.8084 23.6433 68.4342C26.5872 67.257 25.933 63.5284 26.7827 60.2578C26.9797 59.472 26.8489 58.9494 27.241 58.4261V58.5573C28.1569 60.3883 29.0724 62.155 29.9228 63.9864C31.9509 67.1912 35.4828 70.5276 38.4263 72.7519C39.9968 73.9287 41.2394 75.9567 43.202 76.6763V76.4797H43.0707C42.6782 75.8909 42.0894 75.6296 41.5665 75.1713C40.3893 73.9945 39.0805 72.5553 38.165 71.2469C35.4181 67.5834 32.9972 63.5281 30.8387 59.3416C29.7924 57.3143 28.8761 55.09 28.026 53.0624C27.6331 52.2766 27.6331 51.0998 26.9793 50.7076C25.998 52.1465 24.5592 53.3895 23.8395 55.1554C22.5973 57.9681 22.4661 61.435 22.0082 65.0323C21.7465 65.0985 21.8769 65.0323 21.7461 65.1639C19.6534 64.6398 18.9338 62.4817 18.1484 60.65C16.1858 56.0059 15.8587 48.5488 17.56 43.1851C18.0179 41.8113 19.9805 37.4943 19.1955 36.1859C18.803 34.9429 17.4942 34.2233 16.7749 33.2424C15.9249 31.9994 15.0086 30.4301 14.4202 29.0559C12.8501 25.3928 12.0651 21.3371 10.3645 17.674C9.5795 15.973 8.20643 14.2075 7.09392 12.6374C5.85132 10.8714 4.4775 9.62807 3.4962 7.53501C3.16948 6.81577 2.71116 5.63821 3.23452 4.85317C3.36536 4.32981 3.62666 4.13392 4.1504 4.00309C5.00086 3.28309 7.4214 4.19897 8.2711 4.59149C10.6916 5.57204 12.7193 6.48867 14.7473 7.86211C15.6628 8.51631 16.6441 9.75929 17.8213 10.0864H19.1951C21.2885 10.5439 23.6429 10.2172 25.6055 10.8056C29.0728 11.9174 32.2122 13.5529 35.0252 15.3192C43.5945 20.7483 50.6583 28.4671 55.434 37.6902C56.219 39.1941 56.5457 40.5687 57.2654 42.138C58.6395 45.3436 60.3401 48.6142 61.7132 51.754C63.087 54.828 64.395 57.9681 66.3576 60.5195C67.3389 61.8926 71.2633 62.6126 73.0297 63.3322C74.3381 63.9206 76.3661 64.4443 77.5433 65.1636C79.7672 66.5366 81.9911 68.1075 84.0845 69.6114C85.1312 70.3964 88.4015 72.0319 88.5981 73.3399Z" fill="white"/>
<path d="M21.8765 16.4961C20.7648 16.4961 19.9801 16.6277 19.1951 16.8236V16.9544H19.3259C19.8496 18.0011 20.7648 18.7207 21.4186 19.6363C21.9423 20.6826 22.3999 21.7297 22.9236 22.7764C22.9887 22.7106 23.0541 22.6456 23.0541 22.6456C23.9703 21.991 24.4279 20.9446 24.4279 19.3746C24.0354 18.917 23.97 18.4591 23.6429 18.0011C23.2507 17.3466 22.3999 17.0198 21.8765 16.4961Z" fill="white"/>
</g>
<defs>
<clipPath id="clip0_1746_261">
<rect width="96.25" height="94.7485" fill="white" transform="translate(0 0.320801)"/>
</clipPath>
</defs>
</svg>
