<svg width="97" height="60" viewBox="0 0 97 60" fill="none" xmlns="http://www.w3.org/2000/svg">
<path d="M47.5777 59.3208C47.26 59.3208 46.944 59.2379 46.6659 59.0769L43.7636 57.3596C43.3303 57.1172 43.5418 57.0312 43.6848 56.9814C44.263 56.7808 44.38 56.7344 44.9972 56.3845C45.0613 56.3482 45.1466 56.3621 45.213 56.401L47.4428 57.7247C47.5235 57.7695 47.6375 57.7695 47.7119 57.7247L56.4051 52.7073C56.486 52.6612 56.5378 52.568 56.5378 52.4721V42.4398C56.5378 42.3417 56.486 42.2501 56.4029 42.2002L47.7135 37.1872C47.6332 37.1402 47.5265 37.1402 47.4456 37.1872L38.7583 42.2018C38.6739 42.2501 38.6204 42.3447 38.6204 42.4398V52.4721C38.6204 52.568 38.6739 52.659 38.7575 52.7045L41.1389 54.0803C42.431 54.7264 43.2222 53.9654 43.2222 53.201V43.2961C43.2222 43.1559 43.3347 43.0456 43.4748 43.0456H44.577C44.7149 43.0456 44.8289 43.1559 44.8289 43.2961V53.201C44.8289 54.9255 43.8898 55.9145 42.255 55.9145C41.7525 55.9145 41.3569 55.9145 40.2526 55.3703L37.973 54.0579C37.4099 53.7324 37.0613 53.1238 37.0613 52.4721V42.4398C37.0613 41.7881 37.4099 41.1795 37.973 40.8555L46.6659 35.8322C47.216 35.5212 47.9472 35.5212 48.4929 35.8322L57.1854 40.8555C57.7483 41.181 58.0984 41.7881 58.0984 42.4398V52.4721C58.0984 53.1238 57.7483 53.7302 57.1854 54.0579L48.4929 59.0769C48.215 59.2379 47.8997 59.3208 47.5777 59.3208Z" fill="white"/>
<path d="M50.2629 52.4092C46.4588 52.4092 45.662 50.6632 45.662 49.1985C45.662 49.0592 45.7738 48.948 45.9131 48.948H47.037C47.1626 48.948 47.2672 49.0383 47.2868 49.1608C47.4565 50.305 47.9625 50.8825 50.2629 50.8825C52.0942 50.8825 52.8739 50.4682 52.8739 49.4966C52.8739 48.9365 52.6528 48.5207 49.8068 48.2419C47.4282 48.0067 45.9571 47.4812 45.9571 45.5785C45.9571 43.8244 47.4354 42.7784 49.9143 42.7784C52.6992 42.7784 54.0772 43.745 54.2517 45.8187C54.2583 45.8903 54.233 45.9589 54.1854 46.0122C54.1377 46.062 54.0714 46.0925 54.0013 46.0925H52.873C52.7562 46.0925 52.6528 46.0093 52.6291 45.896C52.3584 44.692 51.7002 44.3073 49.9143 44.3073C47.9148 44.3073 47.6824 45.0038 47.6824 45.5258C47.6824 46.1582 47.9566 46.3421 50.6563 46.6994C53.3278 47.0525 54.5969 47.5526 54.5969 49.4302C54.5969 51.3242 53.0175 52.4092 50.2629 52.4092Z" fill="white"/>
<path d="M60.8481 41.7726H61.1404C61.3793 41.7726 61.4241 41.6044 61.4241 41.5069C61.4241 41.2495 61.2466 41.2495 61.1491 41.2495H60.8481V41.7726ZM60.493 40.9481H61.1404C61.3621 40.9481 61.7967 40.9481 61.7967 41.4449C61.7967 41.7907 61.5749 41.8614 61.4415 41.9058C61.6992 41.9234 61.7166 42.0921 61.7518 42.3312C61.7699 42.4818 61.7967 42.7392 61.8493 42.8276H61.4509C61.4415 42.7392 61.3793 42.2603 61.3793 42.2339C61.3534 42.1273 61.3173 42.0744 61.1846 42.0744H60.8569V42.8276H60.493V40.9481ZM59.7177 41.8834C59.7177 42.6637 60.3472 43.2932 61.1182 43.2932C61.8985 43.2932 62.5278 42.6504 62.5278 41.8834C62.5278 41.1035 61.8898 40.4829 61.1182 40.4829C60.3559 40.4829 59.7177 41.0944 59.7177 41.8834ZM62.7978 41.8882C62.7978 42.8099 62.0441 43.5635 61.1225 43.5635C60.2093 43.5635 59.447 42.8188 59.447 41.8882C59.447 40.9397 60.2273 40.2124 61.1225 40.2124C62.0269 40.2124 62.7978 40.9397 62.7978 41.8882Z" fill="white"/>
<path fill-rule="evenodd" clip-rule="evenodd" d="M20.6583 20.0707C20.6583 19.6701 20.4474 19.3019 20.1017 19.1035L10.8852 13.7995C10.7294 13.7076 10.5547 13.66 10.378 13.6528H10.2827C10.1064 13.66 9.93192 13.7076 9.77372 13.7995L0.557273 19.1035C0.213683 19.3019 0 19.6701 0 20.0707L0.0202357 34.3529C0.0202357 34.5516 0.123378 34.7363 0.298111 34.8338C0.469145 34.9363 0.680652 34.9363 0.851033 34.8338L6.32846 31.6973C6.67488 31.4917 6.88574 31.1285 6.88574 30.7314V24.0589C6.88574 23.6611 7.09637 23.2929 7.44149 23.0951L9.77372 21.7519C9.94759 21.6516 10.1376 21.6024 10.3316 21.6024C10.5216 21.6024 10.7164 21.6516 10.8852 21.7519L13.2168 23.0951C13.5619 23.2929 13.7734 23.6611 13.7734 24.0589V30.7314C13.7734 31.1285 13.9871 31.4938 14.3314 31.6973L19.8073 34.8338C19.9789 34.9363 20.1935 34.9363 20.3637 34.8338C20.5334 34.7363 20.6402 34.5516 20.6402 34.3529L20.6583 20.0707Z" fill="white"/>
<path fill-rule="evenodd" clip-rule="evenodd" d="M64.1493 27.5074C64.1493 27.6066 64.0962 27.6987 64.01 27.7481L60.8444 29.5728C60.7584 29.6222 60.6524 29.6222 60.5665 29.5728L57.4008 27.7481C57.3145 27.6987 57.2616 27.6066 57.2616 27.5074V23.8519C57.2616 23.7527 57.3145 23.6607 57.4006 23.6108L60.5661 21.7825C60.6524 21.7327 60.7584 21.7327 60.8448 21.7825L64.0102 23.6108C64.0962 23.6607 64.1493 23.7527 64.1493 23.8519V27.5074ZM65.0047 0.43729C64.8321 0.341545 64.6217 0.343502 64.4513 0.443596C64.2814 0.543476 64.1767 0.726261 64.1767 0.923626V15.0676C64.1767 15.2067 64.1023 15.3355 63.9822 15.4051C63.8616 15.4748 63.713 15.4748 63.5924 15.4051L61.2839 14.0752C60.9397 13.8765 60.516 13.8769 60.1715 14.0754L50.9516 19.3963C50.6069 19.5952 50.3948 19.9628 50.3948 20.3605V31.0047C50.3948 31.4024 50.6069 31.7697 50.9512 31.9691L60.1709 37.294C60.5156 37.4928 60.9399 37.4928 61.2846 37.294L70.5058 31.9691C70.8501 31.7697 71.0624 31.4024 71.0624 31.0047V4.47138C71.0624 4.06795 70.844 3.69585 70.4914 3.49914L65.0047 0.43729Z" fill="white"/>
<path fill-rule="evenodd" clip-rule="evenodd" d="M95.706 23.7565C96.0489 23.5574 96.26 23.1905 96.26 22.7938V20.2144C96.26 19.8177 96.0489 19.4506 95.7056 19.2515L86.5448 13.9327C86.2001 13.7323 85.7747 13.7321 85.4292 13.9312L76.2125 19.2521C75.868 19.451 75.6559 19.8183 75.6559 20.2161V30.8574C75.6559 31.2578 75.8707 31.6271 76.2182 31.8249L85.3776 37.044C85.7153 37.2368 86.1294 37.239 86.4693 37.0501L92.0094 33.9708C92.1852 33.8729 92.2947 33.6886 92.2958 33.488C92.2971 33.2871 92.1902 33.1013 92.0164 33.0014L82.7412 27.6778C82.5679 27.5786 82.4613 27.3941 82.4613 27.195V23.86C82.4613 23.6612 82.5675 23.4771 82.7401 23.3778L85.6268 21.7136C85.7984 21.6144 86.0106 21.6144 86.1825 21.7136L89.0705 23.3778C89.243 23.4771 89.349 23.6612 89.349 23.86V26.4839C89.349 26.6832 89.4556 26.8673 89.6282 26.9665C89.8008 27.0662 90.0134 27.0653 90.1855 26.9654L95.706 23.7565Z" fill="white"/>
<path fill-rule="evenodd" clip-rule="evenodd" d="M85.8512 23.258C85.9173 23.2197 85.9987 23.2197 86.0649 23.258L87.834 24.2785C87.9001 24.3168 87.9408 24.3873 87.9408 24.4637V26.5065C87.9408 26.5831 87.9001 26.6534 87.834 26.6917L86.0649 27.7125C85.9987 27.7508 85.9173 27.7508 85.8512 27.7125L84.0834 26.6917C84.0173 26.6534 83.9766 26.5831 83.9766 26.5065V24.4637C83.9766 24.3873 84.0173 24.3168 84.0834 24.2785L85.8512 23.258Z" fill="white"/>
<path d="M34.9139 14.0436L25.7704 19.3213C25.4283 19.5184 25.2179 19.8831 25.2179 20.2776V30.8417C25.2179 31.2364 25.4283 31.6009 25.7699 31.7985L34.9135 37.0805C35.2553 37.2779 35.6766 37.2779 36.0187 37.0805L45.1642 31.7985C45.5061 31.6009 45.7165 31.2364 45.7165 30.8417V20.2781C45.7165 19.8831 45.5061 19.5184 45.164 19.3213L36.0183 14.0436C35.8474 13.9448 35.6568 13.8956 35.466 13.8956C35.2754 13.8956 35.0845 13.9448 34.9139 14.0436Z" fill="url(#paint0_linear_1746_450)"/>
<g opacity="0.660004">
<path d="M45.1178 19.3213L36.0127 14.0434C35.9216 13.9908 35.8241 13.9533 35.724 13.9288L25.4324 31.5343C25.519 31.6386 25.6234 31.7293 25.7431 31.7985L34.9025 37.0805C35.1756 37.2381 35.4916 37.2677 35.7823 37.1737L45.3976 19.5668C45.3223 19.4706 45.2303 19.3862 45.1178 19.3213Z" fill="#4B4B4B"/>
</g>
<path d="M35.4001 13.8976C35.2323 13.908 35.0665 13.9568 34.9161 14.0436L25.8577 19.2708L35.6982 37.1978C35.8011 37.1734 35.9017 37.1355 35.997 37.0805L45.1209 31.7984C45.4623 31.6009 45.6295 31.2364 45.6295 30.8417V30.8003L35.7591 13.9378C35.6601 13.9102 35.5581 13.8963 35.4562 13.8963C35.4375 13.8963 35.4188 13.8967 35.4001 13.8976Z" fill="url(#paint1_linear_1746_450)"/>
<defs>
<linearGradient id="paint0_linear_1746_450" x1="25.2177" y1="25.562" x2="45.7165" y2="25.562" gradientUnits="userSpaceOnUse">
<stop stop-color="white"/>
<stop offset="0.00530134" stop-color="white"/>
<stop offset="0.725388" stop-color="#AFB1B3"/>
<stop offset="1" stop-color="#AFB1B3"/>
</linearGradient>
<linearGradient id="paint1_linear_1746_450" x1="25.0761" y1="25.547" x2="46.222" y2="25.547" gradientUnits="userSpaceOnUse">
<stop stop-color="#AFB1B3"/>
<stop offset="0.274612" stop-color="#AFB1B3"/>
<stop offset="0.994699" stop-color="white"/>
<stop offset="1" stop-color="white"/>
</linearGradient>
</defs>
</svg>
