<svg width="110" height="111" viewBox="0 0 110 111" fill="none" xmlns="http://www.w3.org/2000/svg">
<path fill-rule="evenodd" clip-rule="evenodd" d="M24.5804 69.8004C23.8174 68.5969 23.8059 67.0639 24.5507 65.8488L52.5944 20.1037C54.1543 17.5594 57.9206 17.7819 59.1701 20.4921L84.7894 76.0665C85.7399 78.1285 84.6457 80.5546 82.4707 81.2072L42.618 93.163C41.0145 93.6439 39.2869 92.9994 38.3906 91.5855L24.5804 69.8004ZM55.8301 33.4792C56.1003 32.1335 57.9442 31.9394 58.4887 33.1994L76.1606 74.0911C76.4931 74.861 76.0792 75.7489 75.2755 75.9887L47.7403 84.2083C46.7282 84.5104 45.7587 83.6261 45.9667 82.5904L55.8301 33.4792Z" fill="white"/>
</svg>
