<svg width="470" height="754" viewBox="0 0 470 754" fill="none" xmlns="http://www.w3.org/2000/svg">
<path d="M531.837 636.642C478.431 668.639 417.193 687.198 353.98 682.388C322.778 680.015 290.279 667.865 264.871 649.426C239.817 631.242 209.334 606.799 191.882 580.602C177.382 558.836 174.11 529.243 179.296 504.21C184.016 481.431 196.794 467.59 212.577 451.648C223.983 440.126 236.367 428.998 248.576 417.747C260.802 406.481 272.871 395.077 283.732 382.942C305.446 358.683 322.249 331.596 325.735 297.102C334.026 215.058 343.901 136.953 411.901 81.1318C449.442 50.3147 491.633 34.7483 537.421 20.675C582.555 6.80296 629.6 -5.69532 676.495 9.26565C715.638 21.7538 752.111 49.0207 767.262 88.3785C772.138 101.045 775.786 114.854 779.797 128.302C783.823 141.8 788.227 154.988 794.636 166.657C807.07 189.293 823.85 207.375 841.565 224.821C859.24 242.228 877.914 259.061 893.841 279.036C907.561 296.242 923.273 321.862 931.424 348.362C939.564 374.829 940.261 402.542 923.344 423.496C905.944 445.049 896.133 453.672 887.245 457.968C882.8 460.117 878.642 461.155 874.051 462.216C869.467 463.275 864.411 464.364 857.97 466.594C804.051 490.074 739.238 511.89 713.508 519.885C704.668 523.204 693.415 526.761 682.585 531.196C671.759 535.63 661.76 540.794 655.649 547.096C621.062 582.768 573.947 611.413 531.837 636.642Z" fill="white" stroke="white" stroke-width="3" stroke-linecap="round"/>
<path d="M336.859 564.145C336.361 563.483 336.493 562.543 337.155 562.045C337.817 561.546 338.757 561.679 339.256 562.341C339.754 563.003 339.621 563.943 338.959 564.441C338.297 564.94 337.357 564.807 336.859 564.145Z" fill="black"/>
<path d="M531.447 520.244C530.619 520.28 529.919 519.638 529.882 518.811C529.846 517.983 530.487 517.283 531.315 517.246C532.143 517.21 532.843 517.852 532.879 518.679C532.916 519.507 532.274 520.207 531.447 520.244Z" fill="black"/>
<path d="M262.982 436.586C262.194 436.331 261.762 435.485 262.018 434.697C262.273 433.909 263.119 433.477 263.907 433.733C264.695 433.988 265.127 434.834 264.872 435.622C264.616 436.41 263.77 436.842 262.982 436.586Z" fill="black"/>
<path d="M421.475 230.713C420.418 230.27 419.756 229.059 419.996 228.009C420.236 226.959 421.288 226.466 422.345 226.909C423.402 227.353 424.064 228.563 423.824 229.613C423.584 230.664 422.532 231.156 421.475 230.713Z" fill="black"/>
<path d="M406.276 120.74C405.219 120.297 404.557 119.087 404.797 118.036C405.037 116.986 406.089 116.494 407.146 116.937C408.203 117.38 408.865 118.59 408.625 119.641C408.385 120.691 407.333 121.183 406.276 120.74Z" fill="black"/>
<path d="M393.087 352.385C392.134 351.985 391.536 350.893 391.753 349.945C391.969 348.997 392.918 348.553 393.872 348.953C394.826 349.353 395.423 350.445 395.206 351.393C394.99 352.34 394.041 352.784 393.087 352.385Z" fill="black"/>
<path d="M327.886 728.134C328.586 728.895 328.673 730.137 328.081 730.908C327.489 731.679 326.442 731.687 325.742 730.926C325.041 730.165 324.954 728.923 325.546 728.152C326.138 727.381 327.185 727.373 327.886 728.134Z" fill="black"/>
<path d="M220.998 676.804C221.888 677.33 222.331 678.494 221.986 679.403C221.642 680.312 220.641 680.623 219.751 680.096C218.861 679.569 218.419 678.406 218.763 677.496C219.108 676.587 220.108 676.277 220.998 676.804Z" fill="black"/>
<path d="M197.638 570.027C198.528 570.553 198.97 571.717 198.626 572.626C198.282 573.535 197.281 573.845 196.391 573.319C195.501 572.792 195.058 571.628 195.403 570.719C195.747 569.81 196.748 569.5 197.638 570.027Z" fill="black"/>
<path d="M340.985 540.967C341.875 541.494 342.318 542.657 341.974 543.567C341.629 544.476 340.629 544.786 339.739 544.259C338.848 543.733 338.406 542.569 338.75 541.66C339.095 540.751 340.095 540.441 340.985 540.967Z" fill="black"/>
<path d="M453.5 603.963C454.39 604.49 454.832 605.654 454.488 606.563C454.143 607.472 453.143 607.782 452.253 607.256C451.363 606.729 450.92 605.565 451.265 604.656C451.609 603.747 452.609 603.437 453.5 603.963Z" fill="black"/>
<path d="M566.014 666.96C566.904 667.486 567.346 668.65 567.002 669.559C566.658 670.468 565.657 670.779 564.767 670.252C563.877 669.725 563.435 668.562 563.779 667.652C564.123 666.743 565.124 666.433 566.014 666.96Z" fill="black"/>
<path d="M375.145 611.676C374.647 611.014 374.779 610.074 375.441 609.575C376.103 609.077 377.043 609.21 377.542 609.872C378.04 610.533 377.907 611.474 377.245 611.972C376.584 612.47 375.643 612.338 375.145 611.676Z" fill="black"/>
<path d="M592.3 515.57C591.473 515.606 590.772 514.964 590.736 514.137C590.699 513.309 591.341 512.609 592.169 512.573C592.996 512.536 593.697 513.178 593.733 514.005C593.769 514.833 593.128 515.533 592.3 515.57Z" fill="black"/>
<path d="M321.626 453.495C320.838 453.239 320.406 452.393 320.662 451.605C320.917 450.817 321.763 450.385 322.551 450.641C323.339 450.896 323.771 451.742 323.516 452.53C323.26 453.318 322.414 453.75 321.626 453.495Z" fill="black"/>
<path d="M487.295 422.682C486.63 422.466 486.265 421.752 486.481 421.086C486.697 420.421 487.411 420.056 488.077 420.272C488.742 420.488 489.107 421.202 488.891 421.868C488.675 422.533 487.961 422.898 487.295 422.682Z" fill="black"/>
<path d="M499.888 260.801C498.831 260.358 498.169 259.147 498.409 258.097C498.649 257.047 499.7 256.555 500.757 256.998C501.814 257.441 502.477 258.651 502.236 259.701C501.996 260.752 500.945 261.244 499.888 260.801Z" fill="black"/>
<path d="M484.689 150.828C483.632 150.385 482.97 149.175 483.21 148.124C483.45 147.074 484.501 146.582 485.558 147.025C486.615 147.468 487.278 148.679 487.037 149.729C486.797 150.779 485.746 151.271 484.689 150.828Z" fill="black"/>
<path d="M463.839 379.533C462.885 379.133 462.288 378.041 462.504 377.093C462.721 376.146 463.67 375.702 464.623 376.101C465.577 376.501 466.175 377.593 465.958 378.541C465.741 379.489 464.793 379.933 463.839 379.533Z" fill="black"/>
<path d="M274.902 673.953C275.602 674.714 275.69 675.956 275.098 676.727C274.506 677.498 273.458 677.506 272.758 676.745C272.058 675.984 271.97 674.742 272.562 673.971C273.154 673.2 274.202 673.192 274.902 673.953Z" fill="black"/>
<path d="M154.629 640.226C155.519 640.752 155.962 641.916 155.617 642.825C155.273 643.734 154.272 644.044 153.382 643.518C152.492 642.991 152.05 641.827 152.394 640.918C152.739 640.009 153.739 639.699 154.629 640.226Z" fill="black"/>
<path d="M131.269 533.448C132.159 533.975 132.601 535.139 132.257 536.048C131.913 536.957 130.912 537.267 130.022 536.74C129.132 536.214 128.689 535.05 129.034 534.141C129.378 533.232 130.379 532.922 131.269 533.448Z" fill="black"/>
<path d="M274.616 504.389C275.506 504.915 275.949 506.079 275.604 506.988C275.26 507.897 274.26 508.208 273.369 507.681C272.479 507.154 272.037 505.991 272.381 505.081C272.726 504.172 273.726 503.862 274.616 504.389Z" fill="black"/>
<path d="M387.131 567.385C388.021 567.912 388.463 569.076 388.119 569.985C387.774 570.894 386.774 571.204 385.884 570.677C384.994 570.151 384.551 568.987 384.896 568.078C385.24 567.169 386.24 566.859 387.131 567.385Z" fill="black"/>
<path d="M499.645 630.382C500.535 630.908 500.977 632.072 500.633 632.981C500.289 633.89 499.288 634.2 498.398 633.674C497.508 633.147 497.065 631.983 497.41 631.074C497.754 630.165 498.755 629.855 499.645 630.382Z" fill="black"/>
<path d="M385.889 581.056C385.391 580.395 385.524 579.454 386.186 578.956C386.848 578.458 387.788 578.59 388.286 579.252C388.784 579.914 388.652 580.854 387.99 581.353C387.328 581.851 386.388 581.718 385.889 581.056Z" fill="black"/>
<path d="M573.133 489.385C572.305 489.422 571.605 488.78 571.569 487.952C571.532 487.125 572.174 486.424 573.002 486.388C573.829 486.352 574.53 486.993 574.566 487.821C574.602 488.648 573.961 489.349 573.133 489.385Z" fill="black"/>
<path d="M312.829 422.26C312.041 422.004 311.61 421.158 311.865 420.37C312.121 419.582 312.967 419.15 313.755 419.406C314.543 419.661 314.974 420.507 314.719 421.295C314.463 422.083 313.618 422.515 312.829 422.26Z" fill="black"/>
<path d="M479.866 396.303C479.201 396.088 478.836 395.373 479.052 394.708C479.268 394.042 479.982 393.678 480.648 393.893C481.313 394.109 481.678 394.823 481.462 395.489C481.246 396.154 480.532 396.519 479.866 396.303Z" fill="black"/>
<path d="M484.745 216.944C483.688 216.501 483.026 215.29 483.266 214.24C483.506 213.19 484.557 212.698 485.614 213.141C486.671 213.584 487.334 214.794 487.094 215.845C486.854 216.895 485.802 217.387 484.745 216.944Z" fill="black"/>
<path d="M469.546 106.971C468.489 106.528 467.827 105.318 468.067 104.267C468.307 103.217 469.358 102.725 470.415 103.168C471.472 103.611 472.135 104.822 471.895 105.872C471.655 106.922 470.603 107.414 469.546 106.971Z" fill="black"/>
<path d="M450.175 339.961C449.222 339.561 448.624 338.469 448.841 337.521C449.057 336.574 450.006 336.13 450.96 336.529C451.914 336.929 452.511 338.021 452.295 338.969C452.078 339.917 451.129 340.361 450.175 339.961Z" fill="black"/>
<path d="M270.818 715.618C271.518 716.379 271.605 717.621 271.013 718.392C270.421 719.163 269.374 719.171 268.674 718.41C267.973 717.649 267.886 716.407 268.478 715.636C269.07 714.865 270.118 714.857 270.818 715.618Z" fill="black"/>
<path d="M162.747 681.296C163.637 681.822 164.079 682.986 163.735 683.895C163.391 684.804 162.39 685.114 161.5 684.588C160.61 684.061 160.168 682.897 160.512 681.988C160.856 681.079 161.857 680.769 162.747 681.296Z" fill="black"/>
<path d="M139.386 574.518C140.276 575.045 140.719 576.209 140.375 577.118C140.03 578.027 139.03 578.337 138.14 577.81C137.25 577.284 136.807 576.12 137.151 575.211C137.496 574.302 138.496 573.992 139.386 574.518Z" fill="black"/>
<path d="M282.734 545.459C283.624 545.985 284.066 547.149 283.722 548.058C283.378 548.967 282.377 549.277 281.487 548.751C280.597 548.224 280.155 547.06 280.499 546.151C280.843 545.242 281.844 544.932 282.734 545.459Z" fill="black"/>
<path d="M395.248 608.455C396.138 608.982 396.581 610.146 396.236 611.055C395.892 611.964 394.891 612.274 394.001 611.747C393.111 611.221 392.669 610.057 393.013 609.148C393.358 608.239 394.358 607.929 395.248 608.455Z" fill="black"/>
<path d="M507.762 671.452C508.653 671.978 509.095 673.142 508.751 674.051C508.406 674.96 507.406 675.27 506.516 674.744C505.626 674.217 505.183 673.053 505.527 672.144C505.872 671.235 506.872 670.925 507.762 671.452Z" fill="black"/>
<path d="M380.44 553.866C379.942 553.204 380.075 552.264 380.736 551.766C381.398 551.267 382.339 551.4 382.837 552.062C383.335 552.724 383.203 553.664 382.541 554.162C381.879 554.661 380.938 554.528 380.44 553.866Z" fill="black"/>
<path d="M547.631 478.493C546.803 478.53 546.103 477.888 546.066 477.061C546.03 476.233 546.672 475.533 547.499 475.496C548.327 475.46 549.027 476.101 549.064 476.929C549.1 477.757 548.458 478.457 547.631 478.493Z" fill="black"/>
<path d="M292.748 403.135C291.96 402.88 291.529 402.034 291.784 401.246C292.039 400.458 292.885 400.026 293.673 400.281C294.461 400.537 294.893 401.383 294.638 402.171C294.382 402.959 293.536 403.391 292.748 403.135Z" fill="black"/>
<path d="M462.907 380.152C462.242 379.936 461.877 379.222 462.093 378.556C462.309 377.891 463.023 377.526 463.689 377.742C464.354 377.958 464.719 378.672 464.503 379.338C464.287 380.003 463.573 380.368 462.907 380.152Z" fill="black"/>
<path d="M456.324 188.36C455.267 187.917 454.604 186.707 454.844 185.656C455.084 184.606 456.136 184.114 457.193 184.557C458.25 185 458.912 186.21 458.672 187.261C458.432 188.311 457.381 188.803 456.324 188.36Z" fill="black"/>
<path d="M441.124 78.3875C440.067 77.9445 439.405 76.7339 439.645 75.6837C439.885 74.6334 440.937 74.1412 441.994 74.5842C443.051 75.0272 443.713 76.2378 443.473 77.2881C443.233 78.3384 442.181 78.8306 441.124 78.3875Z" fill="black"/>
<path d="M424.531 314.17C423.577 313.77 422.979 312.678 423.196 311.73C423.413 310.783 424.361 310.338 425.315 310.738C426.269 311.138 426.867 312.23 426.65 313.178C426.433 314.126 425.485 314.57 424.531 314.17Z" fill="black"/>
<path d="M283.37 749.754C284.07 750.515 284.158 751.757 283.566 752.528C282.974 753.299 281.926 753.307 281.226 752.546C280.526 751.785 280.438 750.543 281.03 749.772C281.622 749.001 282.67 748.993 283.37 749.754Z" fill="black"/>
<path d="M184.62 710.355C185.51 710.881 185.952 712.045 185.608 712.954C185.263 713.863 184.263 714.173 183.373 713.647C182.483 713.12 182.04 711.956 182.385 711.047C182.729 710.138 183.73 709.828 184.62 710.355Z" fill="black"/>
<path d="M161.259 603.577C162.149 604.104 162.591 605.268 162.247 606.177C161.903 607.086 160.902 607.396 160.012 606.869C159.122 606.343 158.68 605.179 159.024 604.27C159.368 603.361 160.369 603.051 161.259 603.577Z" fill="black"/>
<path d="M304.607 574.518C305.497 575.044 305.939 576.208 305.595 577.117C305.251 578.026 304.25 578.336 303.36 577.81C302.47 577.283 302.027 576.119 302.372 575.21C302.716 574.301 303.717 573.991 304.607 574.518Z" fill="black"/>
<path d="M417.121 637.514C418.011 638.041 418.453 639.204 418.109 640.114C417.765 641.023 416.764 641.333 415.874 640.806C414.984 640.28 414.542 639.116 414.886 638.207C415.23 637.298 416.231 636.988 417.121 637.514Z" fill="black"/>
<path d="M529.635 700.51C530.525 701.037 530.968 702.201 530.623 703.11C530.279 704.019 529.278 704.329 528.388 703.803C527.498 703.276 527.056 702.112 527.4 701.203C527.744 700.294 528.745 699.984 529.635 700.51Z" fill="black"/>
<path d="M331.931 604.154C331.433 603.492 331.566 602.552 332.227 602.054C332.889 601.555 333.83 601.688 334.328 602.35C334.826 603.012 334.694 603.952 334.032 604.45C333.37 604.949 332.429 604.816 331.931 604.154Z" fill="black"/>
<path d="M561.647 546.944C560.819 546.981 560.119 546.339 560.083 545.512C560.046 544.684 560.688 543.984 561.515 543.947C562.343 543.911 563.043 544.552 563.08 545.38C563.116 546.208 562.475 546.908 561.647 546.944Z" fill="black"/>
<path d="M281.935 472.165C281.147 471.909 280.715 471.063 280.97 470.275C281.226 469.487 282.072 469.055 282.86 469.311C283.648 469.566 284.08 470.412 283.824 471.2C283.569 471.988 282.723 472.42 281.935 472.165Z" fill="black"/>
<path d="M453.775 438.449C453.109 438.234 452.745 437.519 452.96 436.854C453.176 436.188 453.891 435.824 454.556 436.039C455.222 436.255 455.586 436.97 455.37 437.635C455.155 438.301 454.44 438.665 453.775 438.449Z" fill="black"/>
<path d="M450.364 281.72C449.307 281.277 448.645 280.067 448.885 279.016C449.125 277.966 450.176 277.474 451.233 277.917C452.29 278.36 452.953 279.571 452.713 280.621C452.472 281.671 451.421 282.163 450.364 281.72Z" fill="black"/>
<path d="M435.165 171.748C434.108 171.305 433.445 170.094 433.686 169.044C433.926 167.994 434.977 167.501 436.034 167.944C437.091 168.387 437.753 169.598 437.513 170.648C437.273 171.699 436.222 172.191 435.165 171.748Z" fill="black"/>
<path d="M419.153 398.409C418.2 398.009 417.602 396.917 417.819 395.969C418.035 395.021 418.984 394.577 419.938 394.977C420.892 395.377 421.489 396.469 421.273 397.417C421.056 398.364 420.107 398.809 419.153 398.409Z" fill="black"/>
<path d="M323.388 675.433C324.088 676.194 324.176 677.436 323.584 678.207C322.992 678.978 321.944 678.986 321.244 678.225C320.544 677.463 320.456 676.221 321.048 675.45C321.64 674.68 322.688 674.672 323.388 675.433Z" fill="black"/>
<path d="M201.478 627.645C202.368 628.171 202.81 629.335 202.466 630.244C202.122 631.153 201.121 631.463 200.231 630.937C199.341 630.41 198.899 629.247 199.243 628.337C199.587 627.428 200.588 627.118 201.478 627.645Z" fill="black"/>
<path d="M178.117 520.868C179.007 521.394 179.45 522.558 179.106 523.467C178.761 524.376 177.761 524.686 176.871 524.16C175.981 523.633 175.538 522.469 175.882 521.56C176.227 520.651 177.227 520.341 178.117 520.868Z" fill="black"/>
<path d="M321.465 491.808C322.355 492.335 322.797 493.498 322.453 494.407C322.109 495.317 321.108 495.627 320.218 495.1C319.328 494.573 318.886 493.41 319.23 492.501C319.574 491.591 320.575 491.281 321.465 491.808Z" fill="black"/>
<path d="M480.287 489.825C481.177 490.351 481.619 491.515 481.275 492.424C480.93 493.333 479.93 493.643 479.04 493.117C478.15 492.59 477.707 491.427 478.052 490.517C478.396 489.608 479.396 489.298 480.287 489.825Z" fill="black"/>
<path d="M480.287 489.825C481.177 490.351 481.619 491.515 481.275 492.424C480.93 493.333 479.93 493.643 479.04 493.117C478.15 492.59 477.707 491.427 478.052 490.517C478.396 489.608 479.396 489.298 480.287 489.825Z" fill="black"/>
<path d="M629.806 454.79C630.696 455.317 631.138 456.481 630.794 457.39C630.45 458.299 629.449 458.609 628.559 458.082C627.669 457.556 627.226 456.392 627.571 455.483C627.915 454.574 628.916 454.264 629.806 454.79Z" fill="black"/>
<path d="M242.902 398.091C243.792 398.617 244.235 399.781 243.891 400.69C243.546 401.599 242.546 401.909 241.656 401.383C240.766 400.856 240.323 399.692 240.667 398.783C241.012 397.874 242.012 397.564 242.902 398.091Z" fill="black"/>
<path d="M546.493 617.801C547.384 618.327 547.826 619.491 547.482 620.4C547.137 621.309 546.137 621.619 545.247 621.093C544.357 620.566 543.914 619.402 544.258 618.493C544.603 617.584 545.603 617.274 546.493 617.801Z" fill="black"/>
<path d="M696.013 582.766C696.903 583.293 697.345 584.457 697.001 585.366C696.657 586.275 695.656 586.585 694.766 586.058C693.876 585.532 693.433 584.368 693.778 583.459C694.122 582.55 695.123 582.24 696.013 582.766Z" fill="black"/>
<path d="M309.109 526.067C309.999 526.593 310.442 527.757 310.098 528.666C309.753 529.575 308.753 529.885 307.862 529.359C306.972 528.832 306.53 527.668 306.874 526.759C307.219 525.85 308.219 525.54 309.109 526.067Z" fill="black"/>
<path d="M293.295 584.424C292.797 583.762 292.93 582.822 293.592 582.323C294.253 581.825 295.194 581.958 295.692 582.62C296.19 583.282 296.058 584.222 295.396 584.72C294.734 585.218 293.794 585.086 293.295 584.424Z" fill="black"/>
<path d="M442.815 549.39C442.316 548.728 442.449 547.787 443.111 547.289C443.773 546.791 444.713 546.923 445.211 547.585C445.71 548.247 445.577 549.187 444.915 549.686C444.253 550.184 443.313 550.051 442.815 549.39Z" fill="black"/>
<path d="M55.9112 492.69C55.413 492.028 55.5456 491.088 56.2074 490.589C56.8693 490.091 57.8097 490.224 58.308 490.886C58.8062 491.547 58.6736 492.488 58.0118 492.986C57.3499 493.484 56.4095 493.352 55.9112 492.69Z" fill="black"/>
<path d="M523.518 567.637C522.69 567.673 521.99 567.032 521.954 566.204C521.917 565.377 522.559 564.676 523.386 564.64C524.214 564.603 524.914 565.245 524.951 566.073C524.987 566.9 524.346 567.601 523.518 567.637Z" fill="black"/>
<path d="M673.037 532.602C672.209 532.639 671.509 531.997 671.473 531.17C671.436 530.342 672.078 529.642 672.905 529.605C673.733 529.569 674.434 530.21 674.47 531.038C674.506 531.866 673.865 532.566 673.037 532.602Z" fill="black"/>
<path d="M286.134 475.903C285.306 475.939 284.606 475.298 284.569 474.47C284.533 473.642 285.174 472.942 286.002 472.906C286.83 472.869 287.53 473.511 287.566 474.339C287.603 475.166 286.961 475.867 286.134 475.903Z" fill="black"/>
<path d="M238.976 478.212C238.188 477.957 237.756 477.111 238.012 476.323C238.267 475.535 239.113 475.103 239.901 475.358C240.689 475.614 241.121 476.46 240.866 477.248C240.61 478.036 239.764 478.468 238.976 478.212Z" fill="black"/>
<path d="M388.495 443.178C387.707 442.922 387.276 442.076 387.531 441.288C387.787 440.5 388.632 440.069 389.421 440.324C390.209 440.579 390.64 441.425 390.385 442.213C390.129 443.002 389.283 443.433 388.495 443.178Z" fill="black"/>
<path d="M1.59206 386.478C0.80401 386.223 0.372339 385.377 0.627773 384.589C0.883207 383.801 1.72914 383.369 2.51719 383.624C3.30524 383.88 3.737 384.726 3.48156 385.514C3.22613 386.302 2.38011 386.734 1.59206 386.478Z" fill="black"/>
<path d="M567.014 408.522C566.349 408.307 565.984 407.592 566.2 406.927C566.416 406.261 567.13 405.897 567.796 406.112C568.461 406.328 568.826 407.042 568.61 407.708C568.394 408.374 567.68 408.738 567.014 408.522Z" fill="black"/>
<path d="M180.111 351.823C179.446 351.607 179.081 350.893 179.297 350.227C179.512 349.562 180.227 349.197 180.892 349.413C181.558 349.628 181.923 350.343 181.707 351.008C181.491 351.674 180.777 352.039 180.111 351.823Z" fill="black"/>
<path d="M395.096 284.951C394.039 284.508 393.377 283.297 393.617 282.247C393.857 281.197 394.908 280.704 395.965 281.147C397.022 281.59 397.685 282.801 397.445 283.851C397.205 284.901 396.153 285.394 395.096 284.951Z" fill="black"/>
<path d="M544.615 249.916C543.558 249.473 542.896 248.263 543.136 247.212C543.376 246.162 544.428 245.67 545.485 246.113C546.542 246.556 547.204 247.766 546.964 248.817C546.724 249.867 545.672 250.359 544.615 249.916Z" fill="black"/>
<path d="M157.712 193.217C156.655 192.773 155.993 191.563 156.233 190.513C156.473 189.462 157.524 188.97 158.581 189.413C159.638 189.856 160.301 191.067 160.061 192.117C159.821 193.167 158.769 193.66 157.712 193.217Z" fill="black"/>
<path d="M379.897 174.978C378.84 174.535 378.178 173.324 378.418 172.274C378.658 171.224 379.709 170.732 380.766 171.175C381.823 171.618 382.486 172.828 382.246 173.879C382.006 174.929 380.954 175.421 379.897 174.978Z" fill="black"/>
<path d="M529.416 139.944C528.359 139.5 527.697 138.29 527.937 137.24C528.177 136.189 529.228 135.697 530.285 136.14C531.343 136.583 532.005 137.794 531.765 138.844C531.525 139.894 530.473 140.387 529.416 139.944Z" fill="black"/>
<path d="M142.513 83.2439C141.456 82.8008 140.794 81.5903 141.034 80.54C141.274 79.4897 142.325 78.9975 143.382 79.4405C144.439 79.8835 145.102 81.0941 144.861 82.1444C144.621 83.1947 143.57 83.6869 142.513 83.2439Z" fill="black"/>
<path d="M369.285 401.323C368.332 400.924 367.734 399.831 367.951 398.884C368.167 397.936 369.116 397.492 370.07 397.892C371.023 398.291 371.621 399.384 371.404 400.331C371.188 401.279 370.239 401.723 369.285 401.323Z" fill="black"/>
<path d="M369.928 693.58C370.628 694.341 370.716 695.583 370.124 696.354C369.532 697.125 368.484 697.133 367.784 696.372C367.084 695.611 366.996 694.369 367.588 693.598C368.181 692.827 369.228 692.819 369.928 693.58Z" fill="black"/>
<path d="M251.276 631.584C252.166 632.111 252.608 633.274 252.264 634.184C251.919 635.093 250.919 635.403 250.029 634.876C249.139 634.35 248.696 633.186 249.041 632.277C249.385 631.368 250.385 631.058 251.276 631.584Z" fill="black"/>
<path d="M227.915 524.807C228.805 525.333 229.247 526.497 228.903 527.406C228.559 528.315 227.558 528.625 226.668 528.099C225.778 527.572 225.336 526.409 225.68 525.499C226.024 524.59 227.025 524.28 227.915 524.807Z" fill="black"/>
<path d="M371.262 495.747C372.153 496.274 372.595 497.438 372.251 498.347C371.906 499.256 370.906 499.566 370.016 499.039C369.126 498.513 368.683 497.349 369.028 496.44C369.372 495.531 370.372 495.221 371.262 495.747Z" fill="black"/>
<path d="M483.777 558.744C484.667 559.27 485.109 560.434 484.765 561.343C484.421 562.252 483.42 562.562 482.53 562.036C481.64 561.509 481.197 560.345 481.542 559.436C481.886 558.527 482.887 558.217 483.777 558.744Z" fill="black"/>
<path d="M596.291 621.74C597.181 622.267 597.623 623.431 597.279 624.34C596.935 625.249 595.934 625.559 595.044 625.032C594.154 624.506 593.712 623.342 594.056 622.433C594.4 621.524 595.401 621.214 596.291 621.74Z" fill="black"/>
<path d="M247.111 592.908C246.612 592.246 246.745 591.305 247.407 590.807C248.069 590.309 249.009 590.441 249.507 591.103C250.006 591.765 249.873 592.706 249.211 593.204C248.549 593.702 247.609 593.569 247.111 592.908Z" fill="black"/>
<path d="M504.381 610.518C503.553 610.554 502.852 609.913 502.816 609.085C502.78 608.257 503.421 607.557 504.249 607.521C505.077 607.484 505.777 608.126 505.813 608.953C505.85 609.781 505.208 610.481 504.381 610.518Z" fill="black"/>
<path d="M206.048 511.69C205.26 511.434 204.828 510.588 205.084 509.8C205.339 509.012 206.185 508.58 206.973 508.836C207.761 509.091 208.193 509.937 207.937 510.725C207.682 511.513 206.836 511.945 206.048 511.69Z" fill="black"/>
<path d="M389.687 471.829C389.021 471.614 388.656 470.899 388.872 470.234C389.088 469.568 389.802 469.204 390.468 469.419C391.133 469.635 391.498 470.35 391.282 471.015C391.067 471.681 390.352 472.045 389.687 471.829Z" fill="black"/>
<path d="M356.13 326.967C355.073 326.523 354.411 325.313 354.651 324.263C354.891 323.212 355.942 322.72 357 323.163C358.057 323.606 358.719 324.817 358.479 325.867C358.239 326.917 357.187 327.41 356.13 326.967Z" fill="black"/>
<path d="M340.931 216.994C339.874 216.551 339.212 215.34 339.452 214.29C339.692 213.24 340.743 212.747 341.8 213.191C342.857 213.634 343.52 214.844 343.28 215.894C343.04 216.945 341.988 217.437 340.931 216.994Z" fill="black"/>
<path d="M334.126 439.234C333.173 438.835 332.575 437.742 332.792 436.795C333.008 435.847 333.957 435.403 334.911 435.803C335.865 436.202 336.462 437.295 336.246 438.242C336.029 439.19 335.08 439.634 334.126 439.234Z" fill="black"/>
<path d="M417.694 673.786C418.394 674.547 418.482 675.789 417.89 676.56C417.298 677.331 416.25 677.339 415.55 676.578C414.85 675.817 414.762 674.575 415.354 673.804C415.946 673.033 416.994 673.025 417.694 673.786Z" fill="black"/>
<path d="M291.293 598.843C292.183 599.37 292.626 600.533 292.281 601.443C291.937 602.352 290.936 602.662 290.046 602.135C289.156 601.609 288.714 600.445 289.058 599.536C289.402 598.627 290.403 598.317 291.293 598.843Z" fill="black"/>
<path d="M267.933 492.066C268.823 492.592 269.265 493.756 268.921 494.665C268.576 495.574 267.576 495.884 266.686 495.358C265.796 494.831 265.353 493.667 265.698 492.758C266.042 491.849 267.043 491.539 267.933 492.066Z" fill="black"/>
<path d="M411.28 463.006C412.17 463.533 412.613 464.697 412.268 465.606C411.924 466.515 410.923 466.825 410.033 466.298C409.143 465.772 408.701 464.608 409.045 463.699C409.39 462.79 410.39 462.48 411.28 463.006Z" fill="black"/>
<path d="M523.794 526.003C524.685 526.529 525.127 527.693 524.783 528.602C524.438 529.511 523.438 529.821 522.548 529.295C521.658 528.768 521.215 527.604 521.559 526.695C521.904 525.786 522.904 525.476 523.794 526.003Z" fill="black"/>
<path d="M639.763 597.249C640.653 597.775 641.096 598.939 640.751 599.848C640.407 600.757 639.406 601.068 638.516 600.541C637.626 600.014 637.184 598.851 637.528 597.942C637.872 597.032 638.873 596.722 639.763 597.249Z" fill="black"/>
<path d="M265.274 541.702C280.563 538.157 295.83 547.683 299.375 562.976C302.92 578.268 293.401 593.54 278.112 597.085C262.823 600.629 247.555 591.103 244.01 575.81C240.465 560.518 249.984 545.246 265.274 541.702ZM314.903 504.156C324.075 502.03 333.234 507.744 335.36 516.917C337.487 526.091 331.777 535.252 322.605 537.378C313.432 539.505 304.274 533.79 302.147 524.617C300.021 515.444 305.731 506.282 314.903 504.156ZM88.5166 494.801C95.3011 498.919 102.34 502.51 109.588 505.723L111.138 506.399C118.902 509.744 126.883 512.641 134.985 515.089C152.281 520.314 170.154 523.623 188.177 524.999L188.179 524.999C197.168 525.689 206.227 525.852 215.221 525.406L215.223 525.406C223.104 525.021 230.955 524.189 238.754 522.804L246.427 521.442L240.979 527.014C219.471 549.008 187.736 560.25 155.217 554.182L153.697 553.887C121.879 547.46 96.8997 525.772 84.9233 497.926L81.8343 490.746L88.5166 494.801ZM60.2018 404.001C70.1639 395.482 82.9663 391.049 95.2083 388.501L95.2074 388.501C96.5204 388.226 97.8081 387.987 99.0647 387.752L106.722 386.324L101.326 391.942C96.3569 397.114 92.0029 402.755 88.3298 408.792L87.9548 409.411L87.3066 409.732C81.291 412.721 74.9942 416.947 71.2724 422.101L71.2685 422.105C65.9216 429.467 67.5356 438.18 73.0571 445.864C84.1336 461.278 103.135 470.995 121.006 478.183L123.76 479.264C126.059 480.154 128.367 481.014 130.688 481.817L132.083 482.292L132.086 482.293C165.423 493.528 202.61 499.034 237.415 493.787C249.718 491.93 262.76 488.742 272.586 481.622L273.009 481.31C277.347 478.042 280.681 473.599 281.482 468.674L281.483 468.668C282.732 461.103 278.339 453.372 273.12 446.892L273.119 446.892C272.271 445.867 271.402 444.855 270.517 443.879L270.04 443.352L269.911 442.653C269.697 441.489 269.455 440.327 269.206 439.133C267.907 433.286 266.118 427.615 263.821 422.152L260.837 415.06L267.42 419.045C271.243 421.36 275.152 423.963 279.023 426.997L279.88 427.675C288.714 434.733 296.739 443.57 300.862 454.668C304.432 464.277 304.19 474.932 299.795 484.302C297.572 489.059 294.47 493.232 290.971 496.726L290.97 496.725C281.125 506.633 267.619 512.586 254.742 516.268C220.716 526.017 182.599 523.576 148.811 515.373L148.81 515.372C127.776 510.288 106.68 502.474 88.0324 491.147L86.6205 490.281C72.0005 481.199 56.4764 468.198 49.1938 451.751L49.1904 451.745C46.0812 444.669 44.4742 436.691 45.6436 428.83L45.6452 428.823C47.1328 419.003 52.85 410.276 60.2018 404.001ZM138.744 371.106C169.646 359.355 206.533 365.161 232.337 385.819C258.142 406.476 271.881 441.192 267.216 473.938L267.217 473.939C266.933 475.922 266.52 478.377 265.209 480.576C262.645 484.881 257.642 486.554 253.937 487.582L253.933 487.583C233.401 493.249 211.801 493.229 190.882 491.194L190.881 491.194C156.94 487.876 122.921 478.968 93.5548 461.166L93.5545 461.165C89.4514 458.675 84.8573 455.651 81.6753 451.261L81.6751 451.26C78.5425 446.949 78.6247 441.856 79.6398 437.309C80.6487 432.789 82.7184 428.241 84.1378 424.798L84.6202 423.645C87.0721 417.892 90.0884 412.377 93.5983 407.212L93.6043 407.204L93.6095 407.196C94.8047 405.467 96.0504 403.735 97.4029 402.029C108.06 388.301 122.388 377.312 138.745 371.107L138.744 371.106Z" fill="black" stroke="white" stroke-width="5"/>
</svg>
