<svg width="110" height="111" viewBox="0 0 110 111" fill="none" xmlns="http://www.w3.org/2000/svg">
<path fill-rule="evenodd" clip-rule="evenodd" d="M55.3837 12.8638C54.5862 12.8638 53.7938 12.8858 53.0069 12.9294L53.1175 14.9264C53.8676 14.8848 54.6231 14.8638 55.3837 14.8638C56.2756 14.8638 57.1653 14.8933 58.0515 14.9519L58.1835 12.9562C57.2535 12.8947 56.3197 12.8638 55.3837 12.8638ZM48.2823 13.457C46.7061 13.7233 45.1593 14.0767 43.6471 14.512L44.2004 16.434C45.6407 16.0193 47.114 15.6827 48.6154 15.4291L48.2823 13.457ZM69.1397 15.1562C67.3726 14.5504 65.5669 14.0618 63.7344 13.6938L63.3406 15.6547C65.0867 16.0053 66.8073 16.4708 68.4911 17.0481L69.1397 15.1562ZM39.1611 16.083C37.6906 16.6933 36.2618 17.3839 34.8803 18.1495L35.8497 19.8988C37.1659 19.1695 38.527 18.5115 39.9277 17.9303L39.1611 16.083ZM76.7698 18.6494C75.9617 18.1777 75.1397 17.7336 74.3053 17.3177L73.4131 19.1077C74.2082 19.504 74.9915 19.9271 75.7615 20.3766L76.7698 18.6494ZM30.8585 20.6827C29.5649 21.6024 28.3253 22.5929 27.145 23.6484L28.4783 25.1392C29.6032 24.1331 30.7847 23.1892 32.0174 22.3127L30.8585 20.6827ZM23.7846 27.0088C22.7291 28.189 21.7387 29.4287 20.8189 30.7222L22.4489 31.8812C23.3254 30.6485 24.2694 29.467 25.2754 28.3421L23.7846 27.0088ZM18.2857 34.744C17.5201 36.1255 16.8295 37.5543 16.2192 39.0249L18.0665 39.7915C18.6478 38.3907 19.3057 37.0296 20.0351 35.7134L18.2857 34.744ZM94.2163 38.2637C93.8835 37.5023 93.5279 36.7498 93.1498 36.0071L91.3675 36.9145C91.7278 37.6222 92.0666 38.3393 92.3838 39.0648L94.2163 38.2637ZM97.1074 47.7972C96.8147 46.1583 96.4258 44.5382 95.9427 42.9453L94.0288 43.5257C94.4891 45.0435 94.8597 46.5872 95.1385 48.1488L97.1074 47.7972ZM14.6482 43.5109C14.2129 45.0231 13.8595 46.5699 13.5933 48.1461L15.5653 48.4792C15.819 46.9777 16.1555 45.5044 16.5702 44.0642L14.6482 43.5109ZM97.7674 55.2475C97.7674 54.4139 97.7428 53.582 97.6939 52.7525L95.6974 52.8703C95.744 53.6605 95.7674 54.4533 95.7674 55.2475C95.7674 56.0081 95.7464 56.7636 95.7048 57.5137L97.7018 57.6243C97.7454 56.8374 97.7674 56.045 97.7674 55.2475ZM13.0656 52.8707C13.0221 53.6575 13 54.45 13 55.2475C13 56.045 13.0221 56.8374 13.0656 57.6243L15.0626 57.5137C15.021 56.7636 15 56.0081 15 55.2475C15 54.4869 15.021 53.7313 15.0626 52.9813L13.0656 52.8707ZM96.1192 66.9841C96.5545 65.4718 96.9079 63.9251 97.1742 62.3489L95.2021 62.0157C94.9485 63.5172 94.6119 64.9905 94.1972 66.4308L96.1192 66.9841ZM13.5933 62.3489C13.8595 63.9251 14.2129 65.4719 14.6482 66.9841L16.5702 66.4308C16.1555 64.9905 15.819 63.5172 15.5653 62.0158L13.5933 62.3489ZM92.4817 75.7509C93.2473 74.3694 93.9379 72.9406 94.5482 71.4701L92.7009 70.7035C92.1197 72.1042 91.4617 73.4653 90.7324 74.7815L92.4817 75.7509ZM16.2192 71.4701C16.8295 72.9406 17.5202 74.3694 18.2857 75.7509L20.0351 74.7815C19.3057 73.4653 18.6478 72.1042 18.0665 70.7035L16.2192 71.4701ZM86.9828 83.4861C88.0383 82.3059 89.0288 81.0662 89.9485 79.7727L88.3185 78.6138C87.442 79.8465 86.4981 81.028 85.492 82.1529L86.9828 83.4861ZM20.8189 79.7727C21.7387 81.0663 22.7291 82.3059 23.7846 83.4862L25.2754 82.1529C24.2694 81.028 23.3254 79.8465 22.4489 78.6138L20.8189 79.7727ZM79.909 89.8123C81.2025 88.8925 82.4422 87.9021 83.6224 86.8465L82.2891 85.3558C81.1642 86.3618 79.9827 87.3058 78.75 88.1823L79.909 89.8123ZM27.145 86.8466C28.3253 87.9021 29.565 88.8925 30.8585 89.8123L32.0174 88.1823C30.7847 87.3058 29.6032 86.3618 28.4783 85.3558L27.145 86.8466ZM71.6063 94.412C73.0769 93.8017 74.5057 93.111 75.8872 92.3455L74.9178 90.5961C73.6016 91.3255 72.2405 91.9834 70.8397 92.5647L71.6063 94.412ZM34.8803 92.3455C36.2618 93.111 37.6906 93.8017 39.1611 94.412L39.9277 92.5647C38.527 91.9834 37.1659 91.3255 35.8497 90.5961L34.8803 92.3455ZM62.4851 97.0379C64.0613 96.7717 65.6081 96.4183 67.1203 95.9829L66.567 94.061C65.1268 94.4756 63.6535 94.8122 62.152 95.0659L62.4851 97.0379ZM43.6471 95.9829C45.1593 96.4183 46.7061 96.7717 48.2823 97.0379L48.6154 95.0659C47.114 94.8122 45.6407 94.4756 44.2004 94.061L43.6471 95.9829ZM53.0069 97.5655C53.7938 97.6091 54.5862 97.6312 55.3837 97.6312C56.1812 97.6312 56.9737 97.6091 57.7605 97.5655L57.6499 95.5686C56.8999 95.6101 56.1443 95.6312 55.3837 95.6312C54.6231 95.6312 53.8676 95.6101 53.1175 95.5686L53.0069 97.5655ZM96.7586 23.2437C96.7586 18.0719 92.5592 13.8725 87.3873 13.8725C82.2155 13.8725 78.0161 18.0719 78.0161 23.2437C78.0161 28.4156 82.2155 32.615 87.3873 32.615C92.5592 32.615 96.7586 28.4244 96.7586 23.2437ZM70.7313 64.6186C73.2686 64.2738 73.7902 64.1589 74.5947 63.7876V66.4928C74.5947 67.3062 74.356 67.7924 73.6399 68.4555C72.6586 69.3484 71.4828 69.8081 70.0682 69.8081C68.194 69.8081 67.0977 68.9152 67.0977 67.3858C67.0977 65.8033 68.1675 64.9899 70.7313 64.6186ZM87.3873 55.2562C87.3873 37.5923 73.0476 23.2526 55.3837 23.2526C37.7198 23.2526 23.3801 37.5923 23.3801 55.2562C23.3801 72.9201 37.7198 87.2598 55.3837 87.2598C73.0476 87.2598 87.3873 72.9201 87.3873 55.2562ZM78.0161 41.995C78.0161 36.8232 73.8167 32.6238 68.6449 32.6238C63.473 32.6238 59.2736 36.8232 59.2736 41.995C59.2736 47.1669 63.473 51.3663 68.6449 51.3663C73.8167 51.3663 78.0161 47.1669 78.0161 41.995ZM36.3406 68.8887H46.7109V71.2492H33.6619V50.2523H36.3406V68.8887ZM59.0968 69.1451V71.2492H61.254V56.158H58.867V64.7158C58.867 67.8013 57.2491 69.817 54.7472 69.817C52.8464 69.817 51.6352 68.6588 51.6352 66.8465V56.158H49.2482V67.7924C49.2482 70.3032 51.1224 71.9123 54.0576 71.9123C56.2766 71.9123 57.6823 71.1343 59.0968 69.1451ZM78.8029 71.6559C78.0249 71.8592 77.6536 71.9123 77.1585 71.9123C75.6026 71.9123 74.8511 71.2227 74.6831 69.6932C72.9857 71.2492 71.4562 71.9123 69.5555 71.9123C66.5054 71.9123 64.6046 70.1883 64.6046 67.4476C64.6046 65.485 65.4975 64.1324 67.2569 63.4163C68.1763 63.0449 68.6979 62.93 72.0928 62.4968C73.9935 62.2669 74.5947 61.8337 74.5947 60.8259V60.1894C74.5947 58.7483 73.3835 57.9438 71.2264 57.9438C68.9808 57.9438 67.8846 58.7748 67.6812 60.6226H65.2588C65.3207 59.1285 65.6036 58.2621 66.2932 57.4841C67.3011 56.3613 69.1134 55.7248 71.3059 55.7248C75.0191 55.7248 76.9817 57.1658 76.9817 59.8446V68.7207C76.9817 69.4722 77.4414 69.9054 78.2813 69.9054C78.4228 69.9054 78.5377 69.9054 78.8029 69.8435V71.6559Z" fill="white"/>
</svg>
