<svg width="40" height="86" viewBox="0 0 40 86" fill="none" xmlns="http://www.w3.org/2000/svg">
<g clip-path="url(#clip0_1746_653)">
<path d="M27.3479 9.79464C23.7647 5.56201 20.6792 1.26322 20.0488 0.370402C19.9824 0.304267 19.8829 0.304267 19.8165 0.370402C19.1861 1.26322 16.1006 5.56201 12.5173 9.79464C-18.2386 48.8472 17.3614 75.2022 17.3614 75.2022L17.6599 75.4005C17.9254 79.468 18.5889 85.3208 18.5889 85.3208H19.916H21.2432C21.2432 85.3208 21.9067 79.5009 22.1722 75.4005L22.4707 75.1692C22.5039 75.1692 58.1038 48.8472 27.3479 9.79464ZM19.916 74.6068C19.916 74.6068 18.3235 73.2511 17.8922 72.5566V72.4907L19.8165 29.9658C19.8165 29.8335 20.0156 29.8335 20.0156 29.9658L21.9399 72.4907V72.5566C21.5086 73.2511 19.916 74.6068 19.916 74.6068Z" fill="white"/>
</g>
<defs>
<clipPath id="clip0_1746_653">
<rect width="39.5349" height="85" fill="white" transform="translate(0 0.320801)"/>
</clipPath>
</defs>
</svg>
