<svg width="110" height="111" viewBox="0 0 110 111" fill="none" xmlns="http://www.w3.org/2000/svg">
<path d="M71.1719 16.3218C69.8127 16.5457 68.4535 16.7615 67.1023 16.9854C67.1663 17.0174 67.2302 17.0493 67.2942 17.0813C68.8133 18.2406 70.7081 18.9122 72.2192 20.0156C76.5606 23.1976 81.1738 28.8982 82.4451 34.9825C83.0047 37.6529 82.0133 41.7625 81.5896 44.0731C80.902 47.8468 82.9328 51.0289 82.2532 55.0584C81.9654 56.7614 80.3264 60.791 80.83 61.2147C80.83 61.1508 80.83 61.0868 80.83 61.0229C82.0213 59.8396 82.605 57.9687 83.4845 56.4736C86.9943 50.4772 89.5048 43.4494 91.2478 35.7341C91.9034 32.8158 92.503 27.8269 91.3437 25.0285C90.7521 23.6134 89.273 22.3342 88.1217 21.4307C83.7483 17.9768 79.303 16.2738 71.1719 16.3218Z" fill="white"/>
<path d="M55.7332 17.1773C55.0056 17.2412 54.278 17.3052 53.5585 17.3692C52.1993 17.7449 50.8401 18.1287 49.4889 18.5045C43.3566 21.1509 39.7268 28.6424 39.351 36.9733C40.7502 36.2778 42.2613 35.5262 43.9003 35.0785C52.1833 32.8238 53.3186 38.1167 54.414 44.4568C54.8297 46.8634 54.9017 50.2613 54.318 52.6039C53.8223 54.5867 53.0548 56.3377 52.3272 58.0007C51.6956 59.7996 51.064 61.5985 50.4324 63.3974C50.4643 63.3974 50.4963 63.3974 50.5283 63.3974C51.3118 63.1895 52.1273 63.4534 52.703 63.6853C56.1169 65.0125 55.7332 68.3464 55.7332 72.9677C55.7332 81.2986 54.7178 92.6198 61.2259 94.4667C63.1767 95.0184 65.4793 94.3708 67.0064 93.899C75.2654 91.3486 73.6344 81.4905 75.2494 72.5919C75.6652 70.2813 75.1695 67.1152 76.1928 65.3962C76.9044 64.1969 77.9918 64.0051 79.1271 63.2215C75.6732 57.8408 71.8355 52.0842 69.8447 45.3203C67.4461 37.1732 71.6836 33.9112 79.6947 34.4309C76.0489 24.9566 68.7094 17.2492 55.7332 17.1773Z" fill="white"/>
<path d="M31.3878 17.3612C29.9967 17.5211 28.6055 17.673 27.2223 17.8329C23.2967 18.8163 20.0986 21.0709 18.6035 24.4689C13.9503 35.0225 20.5544 54.6667 24.0962 62.9257C25.3035 65.732 27.6141 71.2087 30.6283 71.9203C32.1874 72.2881 33.1228 71.1368 33.7544 70.4971C36.089 67.8427 38.4236 65.1963 40.7662 62.5419C38.5675 59.9595 35.6013 56.8334 36.5048 51.2687C36.6647 49.6617 36.8166 48.0467 36.9765 46.4396C36.9125 43.5054 36.8485 40.5632 36.7846 37.629C38.1917 28.5064 39.2151 25.4123 43.7004 19.5359C43.7004 19.5039 43.7004 19.4719 43.7004 19.4399C39.8387 18.7843 36.2489 17.4171 31.3878 17.3612Z" fill="white"/>
<path d="M83.7643 66.7074C82.4131 66.4516 81.4777 65.6521 80.2624 65.4762C78.6474 66.3396 77.9118 66.4996 77.9918 69.074C82.0213 71.0488 89.7287 68.3225 91.5356 66.1398C89.201 66.3876 86.4746 67.2191 83.7643 66.7074Z" fill="white"/>
<path d="M50.9041 65.764C49.6089 67.1552 48.3136 68.5463 47.0184 69.9295C45.3474 71.0168 42.5971 71.3766 40.4864 71.9203C40.5183 71.9843 40.5503 72.0482 40.5823 72.1122C45.0196 73.6632 48.7214 73.3115 51.8555 70.689C53.4066 69.3858 54.1501 65.8759 50.9041 65.764Z" fill="white"/>
<path d="M79.1271 44.4568C79.4149 41.9304 79.6947 39.4039 79.9826 36.8774C76.8484 36.7575 73.6104 36.6136 72.3072 38.5804C71.3797 39.9875 71.7075 43.0017 72.2112 44.6407C73.4665 48.7183 75.4493 52.2521 77.4241 55.6261C77.8638 56.5456 78.3116 57.457 78.7513 58.3764C78.8153 58.3445 78.8792 58.3125 78.9432 58.2805C79.327 56.2577 80.2144 54.067 79.7987 51.3647C79.5668 49.0621 79.3509 46.7594 79.1271 44.4568ZM75.3773 41.2748C74.274 40.9709 73.8423 40.7471 73.2026 40.0435C73.2586 39.4998 73.3546 39.5078 73.5784 39.188C74.0901 38.9881 74.3939 38.6204 75.7531 38.5244C76.6965 38.6843 77.0084 38.8362 77.4561 39.4678C76.8804 40.5472 76.4327 40.5952 75.3773 41.2748Z" fill="white"/>
<path d="M49.7688 37.8208C48.9293 37.2132 47.634 37.1412 46.1709 37.1572C44.9717 37.469 43.7724 37.7889 42.5731 38.1007C41.4698 38.7003 40.3664 39.2999 39.2551 39.8996C39.3191 42.2662 39.383 44.6327 39.447 46.9993C39.1112 49.2779 38.5435 52.0523 38.9753 54.3869C39.7908 58.9121 42.813 62.7738 48.0578 62.8298C48.5295 61.3427 49.0012 59.8636 49.4809 58.3764C50.2805 56.4336 51.2799 54.5627 51.8475 52.3161C52.8389 48.4065 52.0634 39.4918 49.7688 37.8208ZM49.7128 40.9949C48.8333 43.0657 45.3634 42.2022 45.2595 39.9555C45.2915 39.8916 45.3234 39.8276 45.3554 39.7637C45.6432 39.6038 45.9231 39.4519 46.2109 39.2919C47.9938 39.236 48.8653 39.5398 49.8087 40.2354C49.7688 40.4912 49.7448 40.7391 49.7128 40.9949Z" fill="white"/>
</svg>
