<svg width="85" height="86" viewBox="0 0 85 86" fill="none" xmlns="http://www.w3.org/2000/svg">
<g clip-path="url(#clip0_1746_225)">
<path d="M41.6794 0.321498C38.2008 0.337662 34.8787 0.634342 31.9557 1.15158C23.3447 2.67285 21.7813 5.85701 21.7813 11.7291V19.4844H42.1301V22.0695H21.7813H14.1446C8.23064 22.0695 3.05224 25.6242 1.4325 32.3862C-0.435841 40.1371 -0.518712 44.9738 1.4325 53.067C2.87897 59.0913 6.33332 63.3837 12.2472 63.3837H19.2436V54.0868C19.2436 47.3704 25.0548 41.4459 31.9557 41.4459H52.2807C57.9385 41.4459 62.4551 36.7875 62.4551 31.1055V11.7291C62.4551 6.21451 57.8029 2.07195 52.2807 1.15158C48.7851 0.569687 45.1581 0.305335 41.6794 0.321498ZM30.675 6.55894C32.7769 6.55894 34.4933 8.30345 34.4933 10.4485C34.4933 12.5858 32.7769 14.3142 30.675 14.3142C28.5655 14.3142 26.8566 12.5858 26.8566 10.4485C26.8566 8.30345 28.5655 6.55894 30.675 6.55894Z" fill="white"/>
<path d="M64.9927 22.0696V31.1056C64.9927 38.1111 59.0535 44.0074 52.2807 44.0074H31.9556C26.3883 44.0074 21.7813 48.7723 21.7812 54.3478V73.7242C21.7812 79.2388 26.5766 82.4824 31.9556 84.0646C38.3969 85.9585 44.5738 86.3008 52.2807 84.0646C57.4036 82.5813 62.4551 79.5963 62.4551 73.7242V65.9689H42.13V63.3838H62.4551H72.6295C78.5434 63.3838 80.7472 59.2587 82.8038 53.0671C84.9283 46.6929 84.8379 40.5631 82.8038 32.3863C81.3423 26.4989 78.5509 22.0696 72.6295 22.0696H64.9927ZM53.5614 71.1391C55.6708 71.1391 57.3797 72.8675 57.3797 75.0048C57.3797 77.1498 55.6708 78.8944 53.5614 78.8944C51.4595 78.8944 49.743 77.1498 49.743 75.0048C49.743 72.8675 51.4595 71.1391 53.5614 71.1391Z" fill="white"/>
</g>
<defs>
<clipPath id="clip0_1746_225">
<rect width="84.2411" height="85" fill="white" transform="translate(0 0.320801)"/>
</clipPath>
</defs>
</svg>
