<svg width="110" height="111" viewBox="0 0 110 111" fill="none" xmlns="http://www.w3.org/2000/svg">
<path fill-rule="evenodd" clip-rule="evenodd" d="M12 13.3208H97V98.3208H12V13.3208ZM64.627 81.2186V80.8892L64.3115 80.9622C64.4158 81.0491 64.521 81.1346 64.627 81.2186ZM64.627 81.2186V89.1899C65.9717 89.8872 67.6152 90.4019 69.4414 90.7505C71.2676 91.0991 73.2598 91.2651 75.252 91.2651C77.2441 91.2651 79.0703 91.0825 80.8965 90.7007C82.7227 90.3189 84.2168 89.688 85.5449 88.8745C86.8896 87.9946 88.0352 86.8823 88.6992 85.3882C89.3633 83.8941 89.8779 82.2339 89.8779 80.0757C89.8779 78.5649 89.6455 77.2534 89.1973 76.0913C88.749 74.9292 88.1016 73.9331 87.2051 73.103C86.3584 72.2232 85.3789 71.4429 84.2168 70.7788C83.0547 70.1148 81.7266 69.4175 80.2324 68.7866C79.5533 68.5088 78.9507 68.2374 78.3535 67.9684C77.9872 67.8033 77.6229 67.6392 77.2441 67.4751C76.3809 67.0435 75.6338 66.6118 75.0859 66.1802C74.4717 65.7319 74.0068 65.2671 73.6748 64.7856C73.3428 64.2876 73.1768 63.7397 73.1768 63.1255C73.1768 62.5611 73.3245 62.0464 73.625 61.5815C73.9255 61.1167 74.3389 60.7349 74.8701 60.4028C75.4014 60.0708 76.0654 59.8218 76.8623 59.6392C77.6426 59.4565 78.5059 59.3735 79.5185 59.3735C80.2158 59.3735 80.9463 59.425 81.6768 59.5296C82.4404 59.6342 83.2207 59.7952 84.001 60.011C84.7813 60.2269 85.5449 60.4925 86.3252 60.8245C87.0557 61.1566 87.7363 61.5384 88.3174 61.97V54.1673C87.0557 53.6858 85.6611 53.3206 84.167 53.0882C82.6728 52.8558 81.0127 52.7395 79.0205 52.7395C77.0283 52.7395 75.2021 52.9554 73.376 53.3704C71.5498 53.7854 70.0557 54.4495 68.7275 55.3626C67.3828 56.2591 66.4033 57.3548 65.5732 58.8489C64.793 60.2434 64.4111 61.8372 64.4111 63.8294C64.4111 66.3196 65.125 68.4778 66.5693 70.138C67.9971 71.9642 70.2217 73.2923 73.0439 74.6204C74.038 75.0238 74.9321 75.4272 75.8021 75.8198C75.9346 75.8796 76.0666 75.9391 76.1982 75.9983C77.1943 76.4466 78.0244 76.9114 78.6885 77.3929C79.4023 77.8743 79.9668 78.4056 80.3486 78.97C80.7637 79.5345 80.9795 80.1985 80.9795 80.9622C80.9795 81.4934 80.85 81.9915 80.5976 82.4563C80.3453 82.9212 79.9502 83.3196 79.4189 83.6517C78.8877 83.9837 78.2402 84.2493 77.4268 84.4485C76.6465 84.6312 75.7666 84.7308 74.6045 84.7308C72.7783 84.7308 70.9521 84.4153 69.292 83.7845C67.5933 83.1977 66.0383 82.3379 64.627 81.2186ZM61.3066 60.4692H50.6816V90.8501H42.2148V60.4692H31.5898V53.6626H61.3066V60.4692Z" fill="white"/>
</svg>
