<svg width="110" height="111" viewBox="0 0 110 111" fill="none" xmlns="http://www.w3.org/2000/svg">
<path d="M12 13.3208V98.3208H97V13.3208H12ZM57.5357 79.3476C57.5357 87.6218 52.6482 91.6555 45.5731 91.6555C39.1829 91.6555 35.4737 88.3466 33.5915 84.3527L40.0955 80.4158C41.3497 82.6413 42.3021 84.5235 45.04 84.5235C47.3167 84.5235 49.1875 83.497 49.1875 79.5032V52.7851H57.5357V79.3476ZM76.3856 91.4658C68.969 91.4658 64.1763 88.1189 61.8369 83.497L68.3504 79.7271C70.058 82.5237 72.2874 84.3869 76.2243 84.3869C79.5333 84.3869 81.4552 82.9221 81.4552 80.6397C81.4552 77.9018 79.4763 76.9323 75.824 75.3272L73.828 74.4696C68.064 72.0182 64.2427 68.937 64.2427 62.4311C64.2427 56.4412 68.8058 52.066 75.9378 52.066C81.017 52.066 84.6655 53.6446 87.2933 58.2665L81.0625 62.2717C79.6926 59.8185 78.2165 58.8565 75.9284 58.8565C73.589 58.8565 72.1052 60.3402 72.1052 62.2717C72.1052 64.668 73.589 65.6375 77.0117 67.1213L79.0077 67.9769C85.7982 70.8874 89.6213 73.8586 89.6213 80.5296C89.6232 87.7205 83.9749 91.4658 76.3856 91.4658Z" fill="white"/>
</svg>
